<svg width="47" height="48" viewBox="0 0 47 48" fill="none" xmlns="http://www.w3.org/2000/svg">
<circle cx="26.0999" cy="21.4" r="20.25" stroke="white" stroke-width="0.9"/>
<path d="M14.9986 33.63C12.7486 33.63 10.7686 33.24 9.05859 32.46C7.37859 31.65 6.05859 30.435 5.09859 28.815C4.13859 27.195 3.65859 25.155 3.65859 22.695V1.5H6.53859V22.695C6.53859 25.515 7.27359 27.615 8.74359 28.995C10.2436 30.345 12.3286 31.02 14.9986 31.02C17.6686 31.02 19.7386 30.345 21.2086 28.995C22.7086 27.615 23.4586 25.515 23.4586 22.695V1.5H26.3386V22.695C26.3386 25.155 25.8586 27.195 24.8986 28.815C23.9686 30.435 22.6486 31.65 20.9386 32.46C19.2286 33.24 17.2486 33.63 14.9986 33.63Z" fill="#3C3C3C"/>
<path d="M21.26 41L31.565 9.5H36.695L47 41H43.985L41.285 32.63H26.975L24.275 41H21.26ZM27.785 30.02H40.475L34.4 11.21H33.86L27.785 30.02Z" fill="#3C3C3C"/>
</svg>
